<svg xmlns="http://www.w3.org/2000/svg" viewBox="0 0 400 300" width="406" height="306" class="illustration styles_illustrationTablet__1DWOa"><g id="_208_camera_flatline" data-name="#208_camera_flatline"><polygon points="244.2 49.1 237.76 49.1 238.5 42.66 243.46 42.66 244.2 49.1" fill="#231f20"></polygon><path d="M244.2,49.6h-6.44a.51.51,0,0,1-.5-.55L238,42.6a.51.51,0,0,1,.5-.44h5a.51.51,0,0,1,.5.44l.74,6.45a.51.51,0,0,1-.5.55Zm-5.88-1h5.32L243,43.16h-4.08Z" fill="#231f20"></path><polygon points="277.64 49.1 271.2 49.1 271.94 42.66 276.9 42.66 277.64 49.1" fill="#231f20"></polygon><path d="M277.64,49.6H271.2a.51.51,0,0,1-.5-.55l.75-6.45a.49.49,0,0,1,.49-.44h5a.5.5,0,0,1,.5.44l.74,6.45a.47.47,0,0,1-.12.38A.5.5,0,0,1,277.64,49.6Zm-5.88-1h5.33l-.63-5.45h-4.08Z" fill="#231f20"></path><rect x="113.75" y="78.33" width="228.55" height="140.4" rx="18.36" fill="#fff"></rect><path d="M323.94,219.23H132.11a18.88,18.88,0,0,1-18.86-18.86V96.69a18.88,18.88,0,0,1,18.86-18.86H323.94A18.88,18.88,0,0,1,342.8,96.69V200.37A18.88,18.88,0,0,1,323.94,219.23ZM132.11,78.83a17.88,17.88,0,0,0-17.86,17.86V200.37a17.88,17.88,0,0,0,17.86,17.86H323.94a17.88,17.88,0,0,0,17.86-17.86V96.69a17.88,17.88,0,0,0-17.86-17.86Z" fill="#231f20"></path><path d="M322.62,166.56H309.09a.5.5,0,0,1-.5-.5V152a.51.51,0,0,1,.5-.5h13.53a7.09,7.09,0,0,1,7.08,7.08v.89A7.08,7.08,0,0,1,322.62,166.56Zm-13-1h13a6.08,6.08,0,0,0,6.08-6.07v-.89a6.09,6.09,0,0,0-6.08-6.08h-13Z" fill="#d1d3d4"></path><path d="M342.3,96.69v.69H187.73l-9.75,12H113.75V96.69a18.36,18.36,0,0,1,18.36-18.36H323.94A18.36,18.36,0,0,1,342.3,96.69Z" fill="#fc7468"></path><path d="M178,109.83H113.75a.5.5,0,0,1-.5-.5V96.69a18.88,18.88,0,0,1,18.86-18.86H323.94A18.88,18.88,0,0,1,342.8,96.69v.69a.5.5,0,0,1-.5.5H188l-9.61,11.77A.46.46,0,0,1,178,109.83Zm-63.73-1h63.49l9.61-11.76a.47.47,0,0,1,.38-.19H341.8v-.19a17.88,17.88,0,0,0-17.86-17.86H132.11a17.88,17.88,0,0,0-17.86,17.86Z" fill="#231f20"></path><path d="M242.14,46h31.12a24.4,24.4,0,0,1,24.28,22l4,41.29h-87.7l4-41.29A24.4,24.4,0,0,1,242.14,46Z" fill="#fc7468"></path><path d="M301.55,109.83h-87.7a.49.49,0,0,1-.37-.16.52.52,0,0,1-.13-.38l4-41.3A24.79,24.79,0,0,1,242.14,45.5h31.12A24.81,24.81,0,0,1,298,68l4,41.3a.52.52,0,0,1-.13.38A.49.49,0,0,1,301.55,109.83Zm-87.15-1H301l-4-40.75A23.81,23.81,0,0,0,273.26,46.5H242.14a23.81,23.81,0,0,0-23.78,21.58Z" fill="#231f20"></path><path d="M277.91,65.38h-39.8a4.08,4.08,0,0,1-3.94-5.16l1.18-4.35a4.08,4.08,0,0,1,3.94-3h37.44a4.09,4.09,0,0,1,3.94,3l1.18,4.35A4.09,4.09,0,0,1,277.91,65.38Z" fill="#231f20"></path><path d="M277.91,65.88h-39.8a4.58,4.58,0,0,1-4.42-5.79l1.18-4.35a4.59,4.59,0,0,1,4.42-3.37h37.44a4.59,4.59,0,0,1,4.42,3.37l1.18,4.35a4.59,4.59,0,0,1-4.42,5.79ZM239.29,53.36A3.59,3.59,0,0,0,235.83,56l-1.18,4.34a3.59,3.59,0,0,0,3.46,4.53h39.8a3.59,3.59,0,0,0,3.46-4.53L280.19,56a3.6,3.6,0,0,0-3.46-2.65Z" fill="#231f20"></path><circle cx="255.11" cy="146.86" r="59.53" fill="#fff"></circle><path d="M255.11,206.89a60,60,0,1,1,60-60A60.1,60.1,0,0,1,255.11,206.89Zm0-119a59,59,0,1,0,59,59A59.09,59.09,0,0,0,255.11,87.84Z" fill="#231f20"></path><path d="M255.11,199.42a52.56,52.56,0,1,1,52.55-52.56A52.62,52.62,0,0,1,255.11,199.42Zm0-104.11a51.56,51.56,0,1,0,51.55,51.55A51.61,51.61,0,0,0,255.11,95.31Z" fill="#d1d3d4"></path><circle cx="255.11" cy="146.86" r="44.29" fill="#231f20"></circle><path d="M255.11,191.65a44.79,44.79,0,1,1,44.78-44.79A44.84,44.84,0,0,1,255.11,191.65Zm0-88.58a43.79,43.79,0,1,0,43.78,43.79A43.84,43.84,0,0,0,255.11,103.07Z" fill="#231f20"></path><path d="M255.11,180.27a33.41,33.41,0,1,1,33.4-33.41A33.45,33.45,0,0,1,255.11,180.27Zm0-62.81a29.41,29.41,0,1,0,29.4,29.4A29.44,29.44,0,0,0,255.11,117.46Z" fill="#d1d3d4"></path><circle cx="247.24" cy="137.88" r="10.19" fill="#fff"></circle><circle cx="271.64" cy="146.86" r="7.06" fill="#fff"></circle><circle cx="329.99" cy="114.82" r="4.57" fill="#fc7468"></circle><path d="M146.78,70.8H174.1a4.68,4.68,0,0,1,4.68,4.68v2.84a0,0,0,0,1,0,0H142.1a0,0,0,0,1,0,0V75.49A4.68,4.68,0,0,1,146.78,70.8Z" fill="#231f20"></path><path d="M178.78,78.83H142.1a.51.51,0,0,1-.5-.5V75.49a5.2,5.2,0,0,1,5.18-5.19H174.1a5.2,5.2,0,0,1,5.18,5.19v2.84A.51.51,0,0,1,178.78,78.83Zm-36.18-1h35.68V75.49a4.19,4.19,0,0,0-4.18-4.19H146.78a4.19,4.19,0,0,0-4.18,4.19Z" fill="#231f20"></path><path d="M190.71,70.8h14.61a4.49,4.49,0,0,1,4.49,4.49v3a0,0,0,0,1,0,0H186.22a0,0,0,0,1,0,0v-3A4.49,4.49,0,0,1,190.71,70.8Z" fill="#fff"></path><path d="M209.81,78.83H186.22a.5.5,0,0,1-.5-.5v-3a5,5,0,0,1,5-5h14.61a5,5,0,0,1,5,5v3A.5.5,0,0,1,209.81,78.83Zm-23.09-1h22.59V75.29a4,4,0,0,0-4-4H190.71a4,4,0,0,0-4,4Z" fill="#231f20"></path><circle cx="154.84" cy="88.83" r="3.29" fill="#fff"></circle><rect x="163.09" y="87.34" width="35.88" height="2.98" rx="1.49" fill="#fff"></rect><path d="M77.4,178.27S91.16,69.82,106.48,57.64c2.41-1.92,42.69-8.08,45-8.54,6.57-1.29,33.3,5.41,33.68,7.91s-1.41,13.13-11.72,13.79-26.54,0-26.54,0l-18.23,8.71-1.25,39.88" fill="#fff"></path><path d="M77.4,178.77h-.06a.49.49,0,0,1-.43-.56c0-.27,3.5-27.45,8.8-55.77,7.12-38.12,14-60,20.46-65.19,1.81-1.44,21.48-4.78,40.48-7.85,2.5-.4,4.31-.69,4.74-.78,6-1.19,29.1,4.23,33.45,7.29a1.72,1.72,0,0,1,.82,1,15.11,15.11,0,0,1-3.23,9.87,12,12,0,0,1-9,4.49c-9.75.63-24.94.07-26.47,0l-17.84,8.52-1.24,39.57a.52.52,0,0,1-.52.49.5.5,0,0,1-.48-.52l1.25-39.87a.49.49,0,0,1,.28-.44l18.23-8.71a.69.69,0,0,1,.24,0c.16,0,16.31.66,26.48,0a11,11,0,0,0,8.25-4.12,14,14,0,0,0,3-9.09c-.66-1.8-26.11-8.87-33.09-7.5-.44.09-2.16.37-4.77.79-9.44,1.53-38.16,6.17-40,7.65C91.81,70,78,177.25,77.9,178.33A.51.51,0,0,1,77.4,178.77Z" fill="#231f20"></path><path d="M144.32,257.34l4.25-27.08s25.66-7.58,22.13-59.33c7.18,15.18,28.59,16.36,32.35,10.15s2.87-20.75-11-25.2c0,0,9.79,2.3,10.45-5.16s.78-14.77-8.36-16.64c0,0,8.66,1.06,8.9-6.39S189.64,110.87,183,106s-16-8.21-22.35-6.8-66.34,18.56-81.34,32.31c-13.72,9.25-24.1,125-24.1,125l10.11.9Z" fill="#fff"></path><path d="M144.32,257.84h-79l-10.16-.91a.51.51,0,0,1-.34-.17.54.54,0,0,1-.11-.37c.42-4.73,10.56-116.07,24.32-125.34C94.33,117,155.58,99.76,160.52,98.66c6.09-1.35,15.45,1.48,22.76,6.88l1.61,1.19c7.07,5.17,18.89,13.83,18.66,21a6.58,6.58,0,0,1-2.2,5,8.34,8.34,0,0,1-4.16,1.76c6.41,2.75,6.44,9.26,5.82,16.27a5.94,5.94,0,0,1-2.38,4.52,9,9,0,0,1-5.19,1.43,17.7,17.7,0,0,1,8.79,9.75c2.18,5.81,1.19,11.66-.75,14.88-1.56,2.57-5.85,4-11.19,3.73-6.77-.34-16-3.69-21-11.9.76,14.61-.51,33.88-10,47.12-5.34,7.48-11,9.86-12.35,10.35l-4.2,26.78A.51.51,0,0,1,144.32,257.84ZM55.73,256l9.62.86H143.9l4.18-26.66a.51.51,0,0,1,.35-.4c.25-.07,25.22-8.13,21.77-58.82a.49.49,0,0,1,.37-.51.49.49,0,0,1,.58.27c4.39,9.28,14.16,13,21.19,13.36,4.9.25,8.93-1,10.28-3.26,1.76-2.91,2.72-8.54.68-14a17.17,17.17,0,0,0-11.39-10.46.5.5,0,0,1,.27-1s5,1.14,7.86-.92a4.94,4.94,0,0,0,2-3.8c.7-7.77.57-14.35-8-16.1a.5.5,0,0,1,.16-1s4.07.46,6.5-1.62a5.6,5.6,0,0,0,1.84-4.28c.21-6.63-11.34-15.09-18.25-20.14l-1.61-1.19c-7-5.17-16.22-8-22-6.71-4.91,1.09-65.87,18.23-81.11,32.19C66.66,140.58,56.5,247.71,55.73,256Z" fill="#231f20"></path><path d="M115.54,140.31a.5.5,0,0,1-.22-.95c1.42-.71,35.05-17.36,45.15-16.72s32.91,10.55,33.88,11a.5.5,0,0,1,.25.66.48.48,0,0,1-.65.25c-.24-.1-23.64-10.28-33.54-10.89s-44.3,16.44-44.65,16.61A.43.43,0,0,1,115.54,140.31Z" fill="#231f20"></path><path d="M202.51,164.49a.42.42,0,0,1-.24-.07c-.32-.18-32.26-18.16-36.36-19.07-3.31-.76-18.15,6.26-23.58,9a.5.5,0,0,1-.68-.22.51.51,0,0,1,.22-.67c.81-.41,19.92-10.06,24.26-9.1s35.31,18.44,36.63,19.18a.51.51,0,0,1,.19.68A.49.49,0,0,1,202.51,164.49Z" fill="#231f20"></path><path d="M232.24,236.52c2.77,7,5.46,14.57,7.58,20.82h105c-5.59-28.59-18.19-93.63-18.56-101.7-.47-10.39-3.95-44.47-13.91-45.39s-10.43,12.8-8.49,25.23S303,170.8,293.07,180c-25.95,24.09-45,18.31-59.18,11.13-35.64-18-21.91-69-25.87-73.33-8.68-9.45-24.5.56-21.36,22,0,0-14.41,10.19-5.95,44C190.22,221.77,226,220.9,232.24,236.52Z" fill="#fff"></path><path d="M344.81,257.84h-105a.5.5,0,0,1-.48-.34c-2.68-7.89-5.22-14.89-7.57-20.79h0c-2.28-5.76-8.9-9.32-16.56-13.43-12.94-6.95-29-15.59-35-39.38-7.93-31.69,3.95-42.74,5.91-44.31-1.83-13.09,3.42-21.84,9.48-24.72a10.54,10.54,0,0,1,12.78,2.61c1.13,1.23,1,5,.83,11.22-.52,17-1.48,48.65,24.9,62,14.95,7.57,33.6,12.17,58.61-11,9.85-9.15,12.53-31.88,10.62-44.09-1.27-8.16-1.86-18.87,2.55-23.56a7.5,7.5,0,0,1,6.48-2.25c12,1.11,14.35,45.42,14.37,45.87.37,8.06,13.1,73.76,18.55,101.63a.51.51,0,0,1-.1.41A.5.5,0,0,1,344.81,257.84Zm-104.63-1h104c-5.52-28.22-18.08-93.11-18.45-101.18a174.44,174.44,0,0,0-3.39-26.16c-2.6-11.9-6.08-18.38-10.07-18.75a6.51,6.51,0,0,0-5.66,1.93c-4.35,4.63-3.3,16.23-2.29,22.73,1.94,12.42-.83,35.59-10.93,45C268,204,248.92,199.32,233.66,191.6c-26.94-13.64-26-45.71-25.44-62.93.16-5.14.29-9.58-.57-10.51A9.58,9.58,0,0,0,196,115.77c-5.77,2.75-10.75,11.22-8.88,24a.47.47,0,0,1-.21.47c-.14.11-14,10.46-5.76,43.44,5.85,23.37,21.73,31.89,34.49,38.74,7.84,4.21,14.61,7.85,17,14C235,242.17,237.53,249.07,240.18,256.84Z" fill="#231f20"></path><path d="M221,206.89a.49.49,0,0,1-.28-.09c-30.82-20.61-34.49-66.5-34.52-67a.49.49,0,0,1,.46-.53.5.5,0,0,1,.53.46c0,.46,3.68,45.86,34.09,66.2a.51.51,0,0,1,.14.7A.52.52,0,0,1,221,206.89Z" fill="#231f20"></path></g></svg>