<svg id="Layer_2" data-name="Layer 2" xmlns="http://www.w3.org/2000/svg" xmlns:xlink="http://www.w3.org/1999/xlink" viewBox="0 0 400 300" width="406" height="306" class="illustration styles_illustrationTablet__1DWOa"><defs><linearGradient id="linear-gradient" x1="82.38" y1="192.15" x2="117.2" y2="163.03" gradientUnits="userSpaceOnUse"><stop offset="0" stop-color="#99ce34"></stop><stop offset="1" stop-color="#006837"></stop></linearGradient><linearGradient id="linear-gradient-2" x1="141.63" y1="250.92" x2="154.1" y2="240.8" xlink:href="#linear-gradient"></linearGradient><linearGradient id="linear-gradient-3" x1="261.04" y1="187.49" x2="280.11" y2="173.84" xlink:href="#linear-gradient"></linearGradient><linearGradient id="linear-gradient-4" x1="308.96" y1="221.6" x2="344.34" y2="192.01" xlink:href="#linear-gradient"></linearGradient></defs><title>PP</title><path d="M194.28,286.39,14.56,180.17C8.84,177,3.93,171.68,9.51,168.22l180.37-104c2.71-1.68,6.82-2.78,9.57-1.18L388.11,172.58c5.72,3.32,6.75,12.6,1,15.93L218,286.22A23.9,23.9,0,0,1,194.28,286.39Z" fill="#99ce34"></path><polyline points="143.88 164.5 83.44 198.77 63.92 183.8 123.37 147.7" opacity="0.32" fill="url(#linear-gradient)"></polyline><path d="M155.05,132l16.87,8.12a3.88,3.88,0,0,1,.27,6.85l-40,23.33a3.88,3.88,0,0,1-5.22-1.25L117.26,154" fill="#56403d"></path><path d="M70.3,88.78,208.06,9.41a4.48,4.48,0,0,1,6.72,3.88V97.62a3.46,3.46,0,0,1-1.73,3L66.42,185.24a1.67,1.67,0,0,1-2.5-1.44v-84A12.74,12.74,0,0,1,70.3,88.78Z" fill="#fc7968"></path><path d="M205.66,16.88,75.18,92a9.15,9.15,0,0,0-4.59,7.93v60.46a3.3,3.3,0,0,0,4.95,2.87L208.61,86.85A3.26,3.26,0,0,0,210.25,84V19.54A3.07,3.07,0,0,0,205.66,16.88Z" fill="#fff"></path><ellipse cx="149.36" cy="130.63" rx="0.01" ry="1.42" transform="translate(-7.17 252.59) rotate(-79.1)" fill="#ab643c"></ellipse><ellipse cx="80.49" cy="93.81" rx="1.42" ry="1.54" fill="#659fe4"></ellipse><ellipse cx="85.02" cy="91.56" rx="1.42" ry="1.54" fill="#c5e9ff"></ellipse><path d="M196.21,120.33a1.64,1.64,0,0,0-.09-1.3,1.37,1.37,0,0,0-1.55-.66,1,1,0,0,0,0-.11,2.24,2.24,0,0,0-.08-.53,1.68,1.68,0,0,0-.56-.86,1.41,1.41,0,0,0-.32-.19c.53-.67,1.06-1.34,1.52-2s1-2,0-2.38-1.72,1-2.19,1.59q-1.28,1.48-2.53,3a2.52,2.52,0,0,0-2.54.54,41.66,41.66,0,0,0-3.95,4,.68.68,0,0,0,0,.89.71.71,0,0,0-.08.48c.06.31.13.61.2.91a11.75,11.75,0,0,0,.42,1.48.7.7,0,0,0,.78.46.62.62,0,0,0,.62.88c2.09-.2,4.17-.47,6.23-.82,1.63-.28,3.48-.65,4-2.48a.68.68,0,0,0,0-.34,1.9,1.9,0,0,0,.6-1A1.62,1.62,0,0,0,196.21,120.33Z" fill="#f7931e"></path><path d="M194.17,118.26a9,9,0,0,0-2,.9,7.15,7.15,0,0,0-1.46-2.4c-.22-.25-.59.12-.37.37a5.38,5.38,0,0,1,1.58,3.14c-.05,1.27-1.24,1.35-1.95.46-.37-.47-.68-1-1-1.51-.19-.27-.63,0-.45.26l1,1.51a2.15,2.15,0,0,0,.79.86,1.88,1.88,0,0,0,1.81-.44,1.69,1.69,0,0,0,.2-1.74l.07,0a8.44,8.44,0,0,1,1.93-.87C194.62,118.66,194.49,118.16,194.17,118.26Z" fill="#42210b"></path><path d="M192.87,121.35a3.86,3.86,0,0,1,1.32-.49l1.44-.42a.26.26,0,0,0-.14-.5,23.28,23.28,0,0,0-2.53.77,1.34,1.34,0,0,0-.93,1.2.84.84,0,0,0,.54.81,1.32,1.32,0,0,0-.42,1,.81.81,0,0,0,.59.74.26.26,0,0,0,.14-.5c-.48-.12-.06-.72.12-.9a.25.25,0,0,0,.07-.17,7.27,7.27,0,0,0,2.39-.32.26.26,0,0,0-.14-.5,7.78,7.78,0,0,1-1.55.27,4.24,4.24,0,0,1-.64,0C192.53,122.26,192.45,121.7,192.87,121.35Z" fill="#42210b"></path><path d="M149.41,130.38s-7.27.78-9.67,9.27c-2.81,9.94-1,12.18,2.14,14.76" fill="#c3ea75"></path><path d="M143.09,255.63c.85.48,1.73,1,2.61,1.43l20.46-14.38-13.39-9.43L131,247.92C134.9,250.65,138.91,253.26,143.09,255.63Z" opacity="0.32" fill="url(#linear-gradient-2)"></path><path d="M147.72,231.27a26.79,26.79,0,0,0-.2,7c.07.5.14,1,.24,1.59l-5.92-1v-7.58Z" fill="#f7931e"></path><path d="M141.6,237.08c1.57,1.12,2.74,1.78,2.74,1.78,1.25,0,3.57.29,2.86-1.47a16.13,16.13,0,0,0,3.07,3.91c1.35,1.26,9,5.31,5.8,7.45-2.37,1.59-14-4.83-14.31-6.54A30.07,30.07,0,0,1,141.6,237.08Z" fill="#56403d"></path><path d="M158.61,226.7a26.79,26.79,0,0,0-.2,7c.07.5.14,1,.24,1.59l-5.92-1V226.7Z" fill="#f7931e"></path><path d="M152.49,232.51c1.57,1.12,2.74,1.78,2.74,1.78,1.25,0,3.57.29,2.86-1.47a16.13,16.13,0,0,0,3.07,3.91c1.35,1.26,9,5.31,5.8,7.45-2.37,1.59-14-4.83-14.31-6.54A30.07,30.07,0,0,1,152.49,232.51Z" fill="#56403d"></path><path d="M162.81,157.3s1.86,50.3-1.81,71.43c0,0-.73,2.35-9.47,1l-.59,4.4a18.43,18.43,0,0,1-11.95-.83s-2.43-48.85,4.86-77.24" fill="#311e69"></path><path d="M185.86,127l-2.36-8.75s-12.45,13.46-27.59,11.44c-2.15.22-4.38.29-6.51.67a9.68,9.68,0,0,0-3,1.1c-3,4.19-4,9.42-4.34,14.5-.17,2.8-.16,5.62-.14,8.43a41.69,41.69,0,0,0,.3,5.34,1.38,1.38,0,0,0,.67,1,7.72,7.72,0,0,0,3.48,1.09c5.27.22,11.65,0,15.76-3.43a12.38,12.38,0,0,0,.72-1.12l-.67-15.48S179.3,136.44,185.86,127Z" fill="#c3ea75"></path><path d="M158.21,121.7s2.32,8.46-1.51,10.32-6.51-.91-7.67-3.43-.72-8.45,4.22-9.05C157.56,119,158.21,121.7,158.21,121.7Z" fill="#f7931e"></path><path d="M159,120.1c.41-1,.57-2.88-.64-3.45a2.64,2.64,0,0,0-2.73.5,3.77,3.77,0,0,0-1.47-.69,6,6,0,0,0-5.59,1.21.85.85,0,0,1-.23.16,1,1,0,0,1-.36,0c-3,.05-3.66,3.46-3.14,5.77a11.61,11.61,0,0,0,3.63,6.23,7.21,7.21,0,0,0,2.73,1.38.22.22,0,0,0,.29-.24.28.28,0,0,0,.09-.4,2.71,2.71,0,0,1-.26-1.64.25.25,0,0,0-.07-.22.27.27,0,0,0-.22-.45,2.12,2.12,0,0,1-1.77-.61c-.28-.29-.51-.86,0-1a.65.65,0,0,1,.59.16,2.17,2.17,0,0,0,.29.39.27.27,0,0,0,.15.08c.2.07.47-.1.34-.33a2.22,2.22,0,0,0-.33-.45,1.55,1.55,0,0,1,.29-1.94c.7-.62,1.36-.28,2.16-.25a1,1,0,0,0,1.13-.74,3.86,3.86,0,0,0-.12-1,1.22,1.22,0,0,1,.76-1.19c.86-.33,1.42.39,2,.83a2.22,2.22,0,0,0,1.84.37,1.52,1.52,0,0,0,.82-2.42A.26.26,0,0,0,159,120.1Zm-5.21,1.2a.85.85,0,0,1,.4-.34l.15-.09h.05l.08,0A1.77,1.77,0,0,0,153.75,121.29Zm4.84-1.79,0,0a2.43,2.43,0,0,0,.1-.28C158.64,119.31,158.62,119.41,158.59,119.5Z" fill="#935542"></path><path d="M154.78,173.46q-.66,23.4-2.37,46.75-.48,6.56-1,13.11c0,.37.55.37.58,0q2-23.32,3-46.72.27-6.57.45-13.15A.29.29,0,0,0,154.78,173.46Z" fill="#fff"></path><path d="M158.34,148.34l.52-.47a35.2,35.2,0,0,0-4.78-6.82c-.29-.33-.77.16-.48.48A34.46,34.46,0,0,1,158.34,148.34Z" fill="#311e69"></path><path d="M152.83,141.25q-3,2.28-6,4.41a26.26,26.26,0,0,1,.66-3.8.34.34,0,0,0-.66-.18,27.27,27.27,0,0,0-.73,4.48l-1.28.88c-.36.24,0,.84.34.59q4.11-2.78,8-5.8C153.52,141.58,153.18,141,152.83,141.25Z" fill="#311e69"></path><path d="M158.86,147.87s-7.78,11-17,6.54l.13,3.65S153.7,158.31,158.86,147.87Z" fill="#311e69"></path><path d="M273.4,168.92,249.14,182s8.62,9,17.14,12.62l29.67-18.2" opacity="0.32" fill="url(#linear-gradient-3)"></path><path d="M290.52,164.75A36.07,36.07,0,0,1,291,170c-.13,1.21-2.86,4.72-4.09,5.22s-2.78.88-2.05,2.76,8.11-1.29,8.72-1.77,1.27-5.2,1.48-5,.12,5.35.85,5.25,0-12.94,0-12.94" fill="#ff831d"></path><path d="M275.72,159.65a36.07,36.07,0,0,1-.3,5.27c-.32,1.18-3.56,4.22-4.85,4.52s-2.89.43-2.45,2.41,8.22,0,8.89-.4,2.06-4.94,2.24-4.7-.72,5.3,0,5.32,2-12.78,2-12.78" fill="#ff831d"></path><path d="M290.83,166.92,291,170a9.55,9.55,0,0,0,5.11-2V166.5" fill="#d17213"></path><path d="M275.67,161.38l-.13,3.09a9.55,9.55,0,0,0,5.3-1.46l.16-1.46" fill="#d17213"></path><path d="M276.44,91.76s-7.24,41.63-7.09,67.92c0,0,9.35,4.56,15,1.65,0,0,2.15-62.37,4.73-66.75" fill="#5e331f"></path><path d="M283.09,94.16S285,150.62,285.32,166c0,0,12.69,3.06,14.07-.44S294.57,93,294.57,93" fill="#5e331f"></path><path d="M299.1,166c3.66-7.76,2.88-20.48,1.79-26.81s-.38-12.68-.21-23-4.84-21.39-4.84-21.39l-3.68.64" fill="#5e331f"></path><path d="M285.2,95.89c3.62.91,7.65,1.66,11-.31,5.58-23.51,1.49-30.8-8.14-33.58a8.72,8.72,0,0,0-9.64,4.05,233.9,233.9,0,0,0-2,26.53c0,.46,3.21,1.6,3.65,1.77a35.65,35.65,0,0,0,4,1.25Z" fill="#938f05"></path><path d="M279.57,64.57s-7.16,10.17-21.78.18c0,0-5,6.1-4.21,7s16.5,12.94,24,6.43" fill="#938f05"></path><path d="M285.34,108.52a.3.3,0,0,0-.59,0q-.75,29.05.41,58.11c0,.38.61.38.59,0Q284.59,137.59,285.34,108.52Z" fill="#fff"></path><path d="M279.2,79.73c-.44-.16-7-1.84-7-1.84l-.77,8.83,8.6,3.08" fill="#938f05"></path><path d="M283.82,62.51h0s-.55,5,3.28,3.54a32,32,0,0,0,4.68-2.27v-3" fill="#cc6c62"></path><path d="M281.4,51.88s-1.85,10,2.36,11.67,8.09-6,8.09-8.31C291.86,50.39,287,50.81,281.4,51.88Z" fill="#f7931e"></path><path d="M305.49,77.52a3.21,3.21,0,0,0-.76-1.73c-.87-1-2.25-1.42-3-2.54-1.22-1.81.75-3.42.9-5.21.28-3.31-4-3.7-5.86-5.34a6.37,6.37,0,0,1-1.72-3.31c-1.07-3.82-1.29-8.52-5-10.87a8.06,8.06,0,0,0-3.87-1,7.39,7.39,0,0,0-4.65,1,4.92,4.92,0,0,0-2.09,3.64c-.07,1,.26,2.7,1.53,2.85.83.1,1.26-.54,1.78-1.06s.94-1.32,1.54-1.88a2.73,2.73,0,0,1,1.41-.74c2.13-.33.2,3.48.17,4.29a1.83,1.83,0,0,0,.36,1.23,2.44,2.44,0,0,0,1.29.72c1,.28,2.78.8,2.16,2.25a26.35,26.35,0,0,1-1.57,2.2,4.39,4.39,0,0,0,.17,5.07,10.73,10.73,0,0,0,2,1.82,3.54,3.54,0,0,1,1.51,2.37c0,.06,0,.12,0,.17-.2,1.55-.85,3.52-.79,5.25a3.09,3.09,0,0,0,.44,1.78,5.47,5.47,0,0,0,1.29,1.64,8.62,8.62,0,0,0,8.2,1.67,7.81,7.81,0,0,0,4-2.12A2.85,2.85,0,0,0,305.49,77.52Zm-3.38-9.42a3.49,3.49,0,0,0,0-.65A3.09,3.09,0,0,0,302,67,2.38,2.38,0,0,1,302.11,68.1Z" fill="#5e331f"></path><ellipse cx="281.33" cy="57.48" rx="1.43" ry="1.65" fill="none" stroke="#42210b" stroke-miterlimit="10"></ellipse><ellipse cx="285.47" cy="57.8" rx="1.43" ry="1.65" fill="none" stroke="#42210b" stroke-miterlimit="10"></ellipse><path d="M284.15,57.37c0-.15-.22-.21-.35-.24a1.21,1.21,0,0,0-.31-.06q0-.2.08-.41c0-.16-.21-.23-.24-.07s-.07.33-.11.5h0c-.18,0-.7.35-.47.58a.13.13,0,0,0,.21-.12.45.45,0,0,1,.23-.18c0,.2-.1.39-.16.58-.15.5-.47,1-.58,1.5s.18.51.55.6a.13.13,0,0,0,.07-.24c-.44-.11-.33-.35-.19-.68s.2-.51.29-.77.21-.69.3-1a.91.91,0,0,1,.22,0,1,1,0,0,1,.24.07.11.11,0,0,0,.15.11h0A.13.13,0,0,0,284.15,57.37Z" fill="#42210b"></path><path d="M285.66,60.3a2,2,0,0,1-1.57.66.13.13,0,0,0,0,.25,2.28,2.28,0,0,0,1.75-.73C286,60.36,285.77,60.18,285.66,60.3Z" fill="#42210b"></path><path d="M276.43,88.3s15,5.23,21.62-2L297,92.22A20.36,20.36,0,0,1,276.43,88.3Z" fill="#5b5708"></path><path d="M288.52,77.73c-2,1.62-5,1.51-7.43,1.48a38.94,38.94,0,0,1-8.14-1c-.56-.13-.79.73-.24.86a39.87,39.87,0,0,0,9.49,1c2.43,0,5-.16,6.95-1.74C289.59,78,289,77.38,288.52,77.73Z" fill="#5b5708"></path><path d="M277.32,72l-.45,7c0,.57.85.57.89,0l.45-7C278.25,71.4,277.36,71.4,277.32,72Z" fill="#5b5708"></path><polyline points="369.03 190.62 308.6 224.89 292.63 216 352 182.93" opacity="0.32" fill="url(#linear-gradient-4)"></polyline><path d="M351.94,169.14s-3.42,23.38,11.3,23.46c14.14.08,10.5-23.75,10.5-23.75S363.45,159.92,351.94,169.14Z" fill="#fc7968"></path><path d="M351.94,169.14s-3.42,23.38,11.3,23.46c14.14.08,10.5-23.75,10.5-23.75S363.45,159.92,351.94,169.14Z" opacity="0.15"></path><ellipse cx="362.8" cy="169.14" rx="10.88" ry="4.49" fill="#fc7968"></ellipse><ellipse cx="362.8" cy="169.14" rx="10.88" ry="4.49" opacity="0.7"></ellipse><path d="M345.67,135s-7.59-1.82-4.67-8.13C341,126.87,346.22,127.9,345.67,135Z" fill="#938f05"></path><path d="M350.29,141.37s-1.05-5.39,3.16-7.57C353.45,133.8,356.83,139.44,350.29,141.37Z" fill="#938f05"></path><path d="M355,149.64s-1.26-6.45,3.78-9.06C358.8,140.58,362.85,147.34,355,149.64Z" fill="#938f05"></path><path d="M358.68,158.64s-1.26-6.45,3.78-9.06C362.46,149.59,366.51,156.34,358.68,158.64Z" fill="#938f05"></path><path d="M349.83,141.51s-2.68-4.8-7.3-3.74C342.53,137.77,343.59,144.27,349.83,141.51Z" fill="#938f05"></path><path d="M354.62,149.83s-3.42-5.61-8.9-4.13C345.72,145.7,347.29,153.42,354.62,149.83Z" fill="#938f05"></path><path d="M358.26,158.72s-4-5.2-9.3-3.13C349,155.59,351.36,163.09,358.26,158.72Z" fill="#938f05"></path><path d="M361.09,173.69h.1a5.24,5.24,0,0,1,1.06.08.52.52,0,0,0,0-.11,77.76,77.76,0,0,0-16.35-39.48c-.47-.6-1.3.25-.84.84a76.33,76.33,0,0,1,16,38.64Z" fill="#42352f"></path><path d="M379,145.3s6.51-1.56,4-7C383.05,138.33,378.58,139.21,379,145.3Z" fill="#938f05"></path><path d="M375.09,150.76s.9-4.63-2.71-6.49C372.37,144.27,369.47,149.11,375.09,150.76Z" fill="#938f05"></path><path d="M371,157.86s1.08-5.53-3.25-7.77C367.79,150.09,364.31,155.88,371,157.86Z" fill="#938f05"></path><path d="M367.89,165.58s1.08-5.53-3.25-7.77C364.64,157.81,361.17,163.61,367.89,165.58Z" fill="#938f05"></path><path d="M375.48,150.89s2.3-4.12,6.26-3.21C381.74,147.67,380.83,153.25,375.48,150.89Z" fill="#938f05"></path><path d="M371.37,158s2.94-4.81,7.64-3.55C379,154.48,377.66,161.1,371.37,158Z" fill="#938f05"></path><path d="M368.25,165.65s3.45-4.46,8-2.68C376.23,163,374.16,169.4,368.25,165.65Z" fill="#938f05"></path><path d="M378.84,144.61a66.68,66.68,0,0,0-13.28,29c.34-.05.7-.11,1-.14a65.48,65.48,0,0,1,12.95-28.14C380,144.82,379.24,144.1,378.84,144.61Z" fill="#42352f"></path><path d="M171.55,97.56a16.16,16.16,0,0,1-4.91-.76C161,95,156.82,90.37,154.77,83.7a34.62,34.62,0,0,1,.52-20.38c4.83-15.22,17.38-24.36,28.58-20.8S200.06,60.78,195.23,76h0A34.63,34.63,0,0,1,183.9,92.94,20.29,20.29,0,0,1,171.55,97.56ZM179,49.85c-6.15,0-13.06,6.63-16,15.92a26.51,26.51,0,0,0-.49,15.56c1.25,4.06,3.59,6.82,6.6,7.78s6.51,0,9.87-2.55a26.51,26.51,0,0,0,8.57-13c3.34-10.54.55-21.23-6.1-23.34A8,8,0,0,0,179,49.85Z" fill="#ffa197"></path><path d="M186.35,76.66c2.44,1.13,4.89,2.24,7.37,3.3a39.35,39.35,0,0,0,1.52-4c2.59-8.15,2.35-16.15-.13-22.37-2.38,1.4-4.76,2.8-7.16,4.15a26.69,26.69,0,0,1-.41,15.77A31.57,31.57,0,0,1,186.35,76.66Z" fill="#fc7968"></path><path d="M181.43,50.22c2.81.89,5.25,4.28,6.51,7.57,2.38-1.35,4.8-2.77,7.16-4.15a18.12,18.12,0,0,0-11.22-11.11,16.68,16.68,0,0,0-9.1-.25v8.56a10.42,10.42,0,0,1,4.22-1A8,8,0,0,1,181.43,50.22Z" fill="#c3ea75"></path><polygon points="81.32 150.75 89.21 126.27 100.41 132.91 109.95 105.11 120.95 114.47 129.87 88.09 147.51 114.01 81.32 150.75" fill="#ffa197"></polygon><polyline points="159.45 180.53 161.62 182.36 164.22 177.79" fill="#cc7069"></polyline><polyline points="267.78 49.8 265.6 47.97 263.83 52.07 267.03 53.03" fill="#cc7069"></polyline><polygon points="265.6 47.97 159.45 109.05 159.45 180.53 265.6 119.61 265.6 47.97" fill="#cc7069"></polygon><polygon points="267.78 49.8 161.62 110.88 161.62 182.36 267.78 121.44 267.78 49.8" fill="#ffa197"></polygon><path d="M182.95,118v35.77c0,3,4.68,3,4.68,0V115.85C186.05,116.54,184.46,117.19,182.95,118Z" fill="#fc7968"></path><path d="M195.9,127.6v19.54c0,3,4.68,3,4.68,0v-22A40.41,40.41,0,0,1,195.9,127.6Z" fill="#fc7968"></path><path d="M209.37,96.67v41.55c0,3,4.68,3,4.68,0V94.39Q211.75,95.61,209.37,96.67Z" fill="#fc7968"></path><path d="M222.32,108.88V131.6c0,3,4.68,3,4.68,0V106.05C225.45,107,223.81,107.83,222.32,108.88Z" fill="#fc7968"></path><path d="M235.31,85.11v37.83c0,3,4.68,3,4.68,0V83.35C238.48,84,236.9,84.57,235.31,85.11Z" fill="#fc7968"></path><path d="M248.26,89.32v27c0,3,4.68,3,4.68,0V86.89C251.44,87.78,249.87,88.58,248.26,89.32Z" fill="#fc7968"></path><polygon points="177.76 157.66 258.16 112.01 258.16 115.85 177.76 161.33 177.76 157.66" fill="#fc7968"></polygon><path d="M272.07,79.24s-2.08-1.53-2.42-1.73.8-4.27-2-5l.54,2.84s-5.39-.58-6.42-.13-.58,1.94-.58,1.94-1.62,0-1.36,1.16A1.51,1.51,0,0,0,261,79.56s-1.23.93-.52,1.7l.71.78a3,3,0,0,0,.64,1.61c.58.65,7.12-.76,7.12-.76L271.74,85Z" fill="#f7931e"></path><path d="M266.59,77.07a34.28,34.28,0,0,1-5.51-.1c-.19,0-.19.28,0,.3a34.28,34.28,0,0,0,5.51.1C266.77,77.35,266.78,77.06,266.59,77.07Z" fill="#42210b"></path><path d="M266.85,79a26.08,26.08,0,0,1-6.06.62.15.15,0,0,0,0,.3,26.42,26.42,0,0,0,6.14-.63C267.11,79.27,267,79,266.85,79Z" fill="#42210b"></path><path d="M266.55,81.09a30.29,30.29,0,0,1-5.37.88.15.15,0,0,0,0,.3,30.62,30.62,0,0,0,5.45-.89C266.81,81.34,266.74,81.06,266.55,81.09Z" fill="#42210b"></path><path d="M165,139.74a1.46,1.46,0,0,0,.68-1.53c-.16-1.09-1.63-.56-1.63-.56s-.12-1.5-1.21-1.54-4.82,2.45-4.82,2.45l.07-1.76c0-.31-.24-.38-.6-.27-1,.3-1.16,1.77-1.21,2.64a2.61,2.61,0,0,0,.11,1c.08.24.3.54.13.79a12.7,12.7,0,0,1-2.26,1.08l.21.41.6.74a13.6,13.6,0,0,1,2.12,3.07l1.82-.7s6.38-1,6.67-1.83a2.86,2.86,0,0,0,0-1.67l.37-.95C166.42,140.15,165,139.74,165,139.74Z" fill="#f7931e"></path><path d="M159.11,139.47a33.11,33.11,0,0,0,4.92-2c.16-.08.27.18.1.27a33.11,33.11,0,0,1-4.92,2C159,139.79,158.93,139.52,159.11,139.47Z" fill="#42210b"></path><path d="M159.57,141.32a25.19,25.19,0,0,0,5.67-1.58.14.14,0,0,1,.1.27,25.52,25.52,0,0,1-5.75,1.6C159.42,141.63,159.39,141.35,159.57,141.32Z" fill="#42210b"></path><path d="M160.56,143.07a29.26,29.26,0,0,0,5.14-1.1.14.14,0,0,1,.1.27,29.58,29.58,0,0,1-5.22,1.12C160.41,143.39,160.38,143.1,160.56,143.07Z" fill="#42210b"></path></svg>